<svg width="59" height="113" fill="none" xmlns="http://www.w3.org/2000/svg">
  <ellipse opacity=".2" cx="29.6" cy="89.21" rx="23.6" ry="23.79" fill="#1F2937" />
  <ellipse cx="29.375" cy="89.211" rx="7.375" ry="7.434" fill="#283741" />
  <path d="M29.5 79.298S59 51.118 59 29.737c0-7.887-3.108-15.45-8.64-21.027A29.381 29.381 0 0 0 29.5 0 29.381 29.381 0 0 0 8.64 8.71 29.858 29.858 0 0 0 0 29.737c0 21.38 29.5 49.561 29.5 49.561Z" fill="#283741" />
  <path d="M42.065 22.048h-7.978v28.227l-2.28 1.36V19.838h7.979c1.259 0 2.279.99 2.279 2.21ZM15.854 30.9v13.943l2.28 1.36 2.278 1.361 2.278 1.361V30.899h-6.836Zm4.558 14.067-2.279-1.36V33.109h2.279v11.858Z" fill="#FDC830" />
  <path d="M43.204 30.9v13.943l-2.279 1.36-2.279 1.359-2.278 1.36v-9.18h2.278v5.225l2.28-1.36V33.109h-4.558V30.9h6.836ZM22.313 27.582l-.57-3.315-.19-1.105h-4.56l-.188 1.105-.57 3.315H15a5.09 5.09 0 0 0 2.09 1.74c.663.302 1.402.47 2.183.47.78 0 1.52-.168 2.182-.47a5.145 5.145 0 0 0 2.09-1.74H22.31h.003Zm-4.922 0 .57-3.315h2.627l.57 3.315H17.39ZM42.826 27.582l-.57-3.315-.189-1.105H37.51l-.19 1.105-.569 3.315h-1.235a5.092 5.092 0 0 0 2.09 1.74c.662.302 1.402.47 2.182.47s1.52-.168 2.183-.47a5.144 5.144 0 0 0 2.09-1.74h-1.235Zm-4.922 0 .57-3.315H41.1l.57 3.315h-3.767Z" fill="#FDC830" />
  <path d="M27.25 19.838v31.797l-2.278-1.36V22.048h-7.978c0-1.22 1.02-2.21 2.279-2.21h7.977Z" fill="#FDC830" />
  <path d="M37.51 18.738H30.67V52.32l-1.14.679-1.136-.679V18.737h-6.844c0-1.22 1.02-2.21 2.279-2.21h4.563v-4.51c.045-.568.537-1.017 1.136-1.017.628 0 1.14.496 1.14 1.105v4.422h4.56c1.259 0 2.278.99 2.278 2.21h.003Z" fill="#FDC830" />
</svg>