<svg width="155" height="48" fill="none" xmlns="http://www.w3.org/2000/svg">
  <g clip-path="url(#a)">
    <path d="M39.118 21.328a10.812 10.812 0 0 1-.276-2.44c0-1.658.36-3.224 1.082-4.699a8.782 8.782 0 0 1 3.177-3.569c1.398-.905 3.078-1.359 5.044-1.359 3.009 0 5.356.999 7.045 2.995 1.505 1.81 2.257 4.038 2.257 6.677 0 2.639-.79 4.889-2.372 6.747-1.582 1.858-3.877 2.802-6.885 2.832-1.965.03-3.7-.414-5.204-1.336-1.996-1.258-3.286-3.207-3.87-5.849l.002.001Zm13.448 3.316c.307-.552.613-1.305.922-2.256.306-.952.46-1.95.46-2.995 0-3.652-.844-6.278-2.533-7.875-.891-.829-1.98-1.243-3.27-1.243-2.025 0-3.53.906-4.513 2.718-.86 1.565-1.275 3.508-1.243 5.826.03 2.318.46 4.259 1.29 5.825 1.013 1.904 2.486 2.856 4.421 2.856s3.424-.952 4.468-2.856h-.002ZM65.599 27.5c1.534 0 2.364-.553 2.486-1.66 0-.398-.284-.773-.851-1.127-.568-.352-1.496-.76-2.787-1.22-1.29-.46-2.295-1.05-3.016-1.773-.722-.72-1.082-1.603-1.082-2.647 0-1.044.468-1.895 1.404-2.555.937-.66 2.01-.99 3.224-.99 1.213 0 2.188.29 2.924.874.429-.092.645-.384.645-.875h.921v3.454h-1.059c-.122-.798-.49-1.413-1.105-1.842-.615-.429-1.329-.645-2.142-.645s-1.436.161-1.865.484c-.43.322-.645.707-.645 1.151 0 .445.245.86.737 1.244.491.383 1.198.737 2.118 1.059.922.322 1.643.591 2.165.806 1.688.829 2.533 2.01 2.533 3.545 0 1.535-.86 2.64-2.578 3.316a4.968 4.968 0 0 1-2.073.46c-1.444-.03-2.67-.428-3.684-1.197-.246.184-.384.49-.414.921h-1.198l.045-3.684h1.151c0 .615.392 1.252 1.175 1.912.782.66 1.773.99 2.97.99v-.002ZM80.888 15.526c1.965 0 3.331.707 4.099 2.118 1.29-1.412 2.763-2.118 4.421-2.118 1.106 0 2.073.277 2.902.83 1.074.737 1.612 1.873 1.612 3.407v7.554h2.026v.967h-7.322v-.967h2.118v-7.875c0-.922-.11-1.55-.322-1.889-.215-.337-.446-.568-.69-.69-.247-.122-.637-.184-1.175-.184s-1.106.184-1.704.553a4.924 4.924 0 0 0-1.497 1.427c.061.369.093.69.093.967v7.69h2.025v.968h-7.23v-.967h2.026v-8.013c0-.86-.108-1.443-.322-1.75-.338-.582-.86-.874-1.566-.874-1.26 0-2.35.568-3.27 1.704v8.934h1.981v.967H71.91v-.967h2.025V16.632h-2.072v-.922h5.25v1.428c1.166-1.074 2.424-1.612 3.776-1.612ZM100.507 17.138c.583.154.921.63 1.014 1.428 0 .46-.17.844-.506 1.15-.339.307-.738.461-1.198.461-.461 0-.852-.152-1.175-.46a1.475 1.475 0 0 1-.484-1.106c0-.43.092-.783.276-1.059.461-.767 1.29-1.335 2.487-1.704a8.057 8.057 0 0 1 2.165-.322c1.841 0 3.2.377 4.075 1.128.875.752 1.312 1.79 1.312 3.108v6.54c0 .707.168 1.052.506 1.035.337-.015.66-.222.967-.621l.645.553c-.553.829-1.459 1.243-2.718 1.243-.461 0-.921-.138-1.382-.414a2.008 2.008 0 0 1-.921-1.198c-.952 1.106-2.227 1.657-3.822 1.657-1.198 0-2.242-.337-3.132-1.013-.891-.676-1.335-1.566-1.335-2.671 0-1.106.429-1.964 1.29-2.579.86-.613 1.972-.921 3.339-.921s2.493.321 3.384.966v-2.901c0-.982-.123-1.658-.368-2.026-.399-.614-.983-.922-1.749-.922-1.352 0-2.242.215-2.671.645l.001.003Zm2.165 10.177c1.044 0 1.949-.476 2.717-1.427v-2.441c-.707-.676-1.481-1.014-2.325-1.014-.845 0-1.473.192-1.889.576-.414.384-.621 1.006-.621 1.865 0 1.29.461 2.058 1.382 2.302.245.093.491.138.737.138l-.001.001ZM116.948 17.414c1.32-1.258 2.732-1.888 4.237-1.888.521 0 .967.161 1.335.484.369.322.553.737.553 1.243 0 .507-.161.922-.484 1.244a1.601 1.601 0 0 1-1.174.484c-.431 0-.806-.161-1.128-.484-.322-.322-.484-.645-.484-.967 0-.322.03-.576.092-.76-1.198.37-2.18.984-2.947 1.842v8.75h2.67v.922h-7.736v-.922h1.842V16.677h-1.842v-.967h5.066v1.704ZM134.356 31.207c.277-.413.5-1.035.669-1.864.167-.83.253-2.748.253-5.758V10.461h-2.303v-.967h8.06v.967h-2.441v16.164c0 1.78-.469 3.207-1.405 4.283a6.862 6.862 0 0 1-3.476 2.164l-.506-.874a2.929 2.929 0 0 0 1.151-.99h-.002ZM148.31 17.414c1.321-1.258 2.733-1.888 4.238-1.888.521 0 .966.161 1.335.484.369.322.553.737.553 1.243 0 .507-.161.922-.484 1.244a1.602 1.602 0 0 1-1.175.484c-.43 0-.806-.161-1.127-.484-.322-.322-.485-.645-.485-.967 0-.322.031-.576.093-.76-1.198.37-2.18.984-2.948 1.842v8.75h2.671v.922h-7.736v-.922h1.842V16.677h-1.842v-.967h5.065v1.704ZM39.073 38.63l2.18-6.051h1.377l2.245 6.051h-.837l-2.031-5.52.397.199h-.978l.422-.2-1.964 5.521h-.813.002Zm1.301-1.807.274-.73h2.611l.274.73h-3.159ZM45.987 38.663v-6.117h.813v6.117h-.813Zm.646 0v-.745h1.509c.364 0 .689-.06.973-.18a2.118 2.118 0 0 0 1.19-1.23c.105-.282.158-.586.158-.912 0-.342-.052-.653-.158-.932a2.048 2.048 0 0 0-1.19-1.206 2.686 2.686 0 0 0-.973-.167h-1.509v-.745h1.426c.548 0 1.022.084 1.427.253a2.843 2.843 0 0 1 1.608 1.633c.131.35.199.707.199 1.072v.183a2.984 2.984 0 0 1-.8 2.022 2.948 2.948 0 0 1-1.008.691c-.402.175-.878.262-1.426.262h-1.426v.001ZM53.878 38.63l-2.097-6.051h.837l1.882 5.52-.398-.2h.995l-.422.2 1.733-5.52h.812l-1.947 6.051h-1.395ZM60.991 38.779c-.541 0-1.008-.097-1.401-.29a2.833 2.833 0 0 1-.97-.764 3.362 3.362 0 0 1-.568-1.01 3.177 3.177 0 0 1-.187-1.038v-.183c0-.359.063-.72.191-1.086a3.05 3.05 0 0 1 .58-.999c.26-.3.585-.543.974-.724.39-.182.85-.274 1.381-.274s.99.09 1.381.274c.39.182.714.423.974.724.26.302.452.634.58.999.127.364.191.726.191 1.086v.183a3.347 3.347 0 0 1-.755 2.048 2.85 2.85 0 0 1-.97.763c-.391.194-.859.29-1.4.29Zm0-.746c.354 0 .673-.066.958-.2.284-.131.526-.313.724-.542.2-.23.351-.49.456-.78.104-.29.158-.596.158-.916 0-.337-.053-.652-.158-.945a2.358 2.358 0 0 0-.456-.776 2.13 2.13 0 0 0-.724-.527 2.333 2.333 0 0 0-.958-.19 2.31 2.31 0 0 0-.957.19 2.085 2.085 0 0 0-.725.527c-.2.224-.35.483-.455.776a2.793 2.793 0 0 0-.158.945 2.584 2.584 0 0 0 .613 1.696 2.157 2.157 0 0 0 1.682.742ZM68.153 38.779a3.35 3.35 0 0 1-1.277-.233 2.829 2.829 0 0 1-.982-.654 2.938 2.938 0 0 1-.634-.999 3.454 3.454 0 0 1-.224-1.255v-.183a3.166 3.166 0 0 1 .792-2.102c.257-.29.571-.52.941-.688a2.98 2.98 0 0 1 1.252-.253c.503 0 .95.095 1.342.286.392.192.707.457.945.797s.375.733.414 1.181h-.83a1.583 1.583 0 0 0-.331-.842 1.733 1.733 0 0 0-.675-.506 2.212 2.212 0 0 0-.867-.17 2.2 2.2 0 0 0-.87.17 1.923 1.923 0 0 0-.684.486c-.191.21-.338.462-.443.755a2.92 2.92 0 0 0-.158.986c0 .414.056.778.17 1.09a2 2 0 0 0 1.202 1.249c.28.105.585.159.917.159.469 0 .883-.095 1.239-.286a2.04 2.04 0 0 0 .809-.742l-.299.986v-1.799h.762v1.443c-.271.353-.619.63-1.044.83-.425.199-.915.298-1.467.298v-.004Zm-.216-2.404v-.68h3.241v.68h-3.241ZM71.618 38.63l2.18-6.051h1.376l2.246 6.051h-.838l-2.031-5.52.397.199h-.978l.422-.2-1.965 5.521h-.813.004Zm1.302-1.807.273-.73h2.612l.274.73h-3.16ZM78.532 38.663v-6.117h.813v6.117h-.813Zm.647 0v-.745h1.508c.365 0 .69-.06.974-.18a2.118 2.118 0 0 0 1.19-1.23c.104-.282.156-.586.156-.912 0-.342-.052-.653-.156-.932a2.054 2.054 0 0 0-1.19-1.206 2.687 2.687 0 0 0-.974-.167H79.18v-.745h1.426c.547 0 1.022.084 1.426.253a2.841 2.841 0 0 1 1.608 1.633c.132.35.2.707.2 1.072v.183a2.984 2.984 0 0 1-.801 2.022 2.95 2.95 0 0 1-1.007.691c-.403.174-.879.262-1.426.262h-1.426v.001ZM87.8 38.779c-.543 0-1.009-.097-1.402-.29a2.835 2.835 0 0 1-.97-.764 3.364 3.364 0 0 1-.568-1.01 3.143 3.143 0 0 1-.187-1.038v-.183c0-.359.063-.72.191-1.086a3.05 3.05 0 0 1 .58-.999c.26-.3.585-.543.974-.724.39-.183.85-.274 1.381-.274s.99.09 1.38.274c.39.182.715.423.975.724.26.302.452.634.58.999.127.364.191.726.191 1.086v.183a3.343 3.343 0 0 1-.755 2.048c-.254.315-.578.57-.97.763-.391.194-.859.29-1.4.29Zm0-.746c.353 0 .672-.066.956-.2.285-.131.527-.313.725-.542.2-.23.35-.49.457-.78.104-.29.158-.596.158-.916 0-.337-.052-.652-.158-.945a2.337 2.337 0 0 0-.457-.776 2.128 2.128 0 0 0-.725-.527 2.333 2.333 0 0 0-.957-.19 2.31 2.31 0 0 0-.957.19 2.084 2.084 0 0 0-.725.527c-.2.224-.35.483-.457.776a2.79 2.79 0 0 0-.158.945 2.584 2.584 0 0 0 .615 1.696 2.157 2.157 0 0 0 1.682.742Z" fill="#FED96E" />
    <path d="M39.118 21.328a10.812 10.812 0 0 1-.276-2.44c0-1.658.36-3.224 1.082-4.699a8.782 8.782 0 0 1 3.177-3.569c1.398-.905 3.078-1.359 5.044-1.359 3.009 0 5.356.999 7.045 2.995 1.505 1.81 2.257 4.038 2.257 6.677 0 2.639-.79 4.889-2.372 6.747-1.582 1.858-3.877 2.802-6.885 2.832-1.965.03-3.7-.414-5.204-1.336-1.996-1.258-3.286-3.207-3.87-5.849l.002.001Zm13.448 3.316c.307-.552.613-1.305.922-2.256.306-.952.46-1.95.46-2.995 0-3.652-.844-6.278-2.533-7.875-.891-.829-1.98-1.243-3.27-1.243-2.025 0-3.53.906-4.513 2.718-.86 1.565-1.275 3.508-1.243 5.826.03 2.318.46 4.259 1.29 5.825 1.013 1.904 2.486 2.856 4.421 2.856s3.424-.952 4.468-2.856h-.002ZM65.599 27.5c1.534 0 2.364-.553 2.486-1.66 0-.398-.284-.773-.851-1.127-.568-.352-1.496-.76-2.787-1.22-1.29-.46-2.295-1.05-3.016-1.773-.722-.72-1.082-1.603-1.082-2.647 0-1.044.468-1.895 1.404-2.555.937-.66 2.01-.99 3.224-.99 1.213 0 2.188.29 2.924.874.429-.092.645-.384.645-.875h.921v3.454h-1.059c-.122-.798-.49-1.413-1.105-1.842-.615-.429-1.329-.645-2.142-.645s-1.436.161-1.865.484c-.43.322-.645.707-.645 1.151 0 .445.245.86.737 1.244.491.383 1.198.737 2.118 1.059.922.322 1.643.591 2.165.806 1.688.829 2.533 2.01 2.533 3.545 0 1.535-.86 2.64-2.578 3.316a4.968 4.968 0 0 1-2.073.46c-1.444-.03-2.67-.428-3.684-1.197-.246.184-.384.49-.414.921h-1.198l.045-3.684h1.151c0 .615.392 1.252 1.175 1.912.782.66 1.773.99 2.97.99v-.002ZM80.888 15.526c1.965 0 3.331.707 4.099 2.118 1.29-1.412 2.763-2.118 4.421-2.118 1.106 0 2.073.277 2.902.83 1.074.737 1.612 1.873 1.612 3.407v7.554h2.026v.967h-7.322v-.967h2.118v-7.875c0-.922-.11-1.55-.322-1.889-.215-.337-.446-.568-.69-.69-.247-.122-.637-.184-1.175-.184s-1.106.184-1.704.553a4.924 4.924 0 0 0-1.497 1.427c.061.369.093.69.093.967v7.69h2.025v.968h-7.23v-.967h2.026v-8.013c0-.86-.108-1.443-.322-1.75-.338-.582-.86-.874-1.566-.874-1.26 0-2.35.568-3.27 1.704v8.934h1.981v.967H71.91v-.967h2.025V16.632h-2.072v-.922h5.25v1.428c1.166-1.074 2.424-1.612 3.776-1.612ZM100.507 17.138c.583.154.921.63 1.014 1.428 0 .46-.17.844-.506 1.15-.339.307-.738.461-1.198.461-.461 0-.852-.152-1.175-.46a1.475 1.475 0 0 1-.484-1.106c0-.43.092-.783.276-1.059.461-.767 1.29-1.335 2.487-1.704a8.057 8.057 0 0 1 2.165-.322c1.841 0 3.2.377 4.075 1.128.875.752 1.312 1.79 1.312 3.108v6.54c0 .707.168 1.052.506 1.035.337-.015.66-.222.967-.621l.645.553c-.553.829-1.459 1.243-2.718 1.243-.461 0-.921-.138-1.382-.414a2.008 2.008 0 0 1-.921-1.198c-.952 1.106-2.227 1.657-3.822 1.657-1.198 0-2.242-.337-3.132-1.013-.891-.676-1.335-1.566-1.335-2.671 0-1.106.429-1.964 1.29-2.579.86-.613 1.972-.921 3.339-.921s2.493.321 3.384.966v-2.901c0-.982-.123-1.658-.368-2.026-.399-.614-.983-.922-1.749-.922-1.352 0-2.242.215-2.671.645l.001.003Zm2.165 10.177c1.044 0 1.949-.476 2.717-1.427v-2.441c-.707-.676-1.481-1.014-2.325-1.014-.845 0-1.473.192-1.889.576-.414.384-.621 1.006-.621 1.865 0 1.29.461 2.058 1.382 2.302.245.093.491.138.737.138l-.001.001ZM116.948 17.414c1.32-1.258 2.732-1.888 4.237-1.888.521 0 .967.161 1.335.484.369.322.553.737.553 1.243 0 .507-.161.922-.484 1.244a1.601 1.601 0 0 1-1.174.484c-.431 0-.806-.161-1.128-.484-.322-.322-.484-.645-.484-.967 0-.322.03-.576.092-.76-1.198.37-2.18.984-2.947 1.842v8.75h2.67v.922h-7.736v-.922h1.842V16.677h-1.842v-.967h5.066v1.704ZM134.356 31.207c.277-.413.5-1.035.669-1.864.167-.83.253-2.748.253-5.758V10.461h-2.303v-.967h8.06v.967h-2.441v16.164c0 1.78-.469 3.207-1.405 4.283a6.862 6.862 0 0 1-3.476 2.164l-.506-.874a2.929 2.929 0 0 0 1.151-.99h-.002ZM148.31 17.414c1.321-1.258 2.733-1.888 4.238-1.888.521 0 .966.161 1.335.484.369.322.553.737.553 1.243 0 .507-.161.922-.484 1.244a1.602 1.602 0 0 1-1.175.484c-.43 0-.806-.161-1.127-.484-.322-.322-.485-.645-.485-.967 0-.322.031-.576.093-.76-1.198.37-2.18.984-2.948 1.842v8.75h2.671v.922h-7.736v-.922h1.842V16.677h-1.842v-.967h5.065v1.704ZM39.073 38.63l2.18-6.051h1.377l2.245 6.051h-.837l-2.031-5.52.397.199h-.978l.422-.2-1.964 5.521h-.813.002Zm1.301-1.807.274-.73h2.611l.274.73h-3.159ZM45.987 38.663v-6.117h.813v6.117h-.813Zm.646 0v-.745h1.509c.364 0 .689-.06.973-.18a2.118 2.118 0 0 0 1.19-1.23c.105-.282.158-.586.158-.912 0-.342-.052-.653-.158-.932a2.048 2.048 0 0 0-1.19-1.206 2.686 2.686 0 0 0-.973-.167h-1.509v-.745h1.426c.548 0 1.022.084 1.427.253a2.843 2.843 0 0 1 1.608 1.633c.131.35.199.707.199 1.072v.183a2.984 2.984 0 0 1-.8 2.022 2.948 2.948 0 0 1-1.008.691c-.402.175-.878.262-1.426.262h-1.426v.001ZM53.878 38.63l-2.097-6.051h.837l1.882 5.52-.398-.2h.995l-.422.2 1.733-5.52h.812l-1.947 6.051h-1.395ZM60.991 38.779c-.541 0-1.008-.097-1.401-.29a2.833 2.833 0 0 1-.97-.764 3.362 3.362 0 0 1-.568-1.01 3.177 3.177 0 0 1-.187-1.038v-.183c0-.359.063-.72.191-1.086a3.05 3.05 0 0 1 .58-.999c.26-.3.585-.543.974-.724.39-.182.85-.274 1.381-.274s.99.09 1.381.274c.39.182.714.423.974.724.26.302.452.634.58.999.127.364.191.726.191 1.086v.183a3.347 3.347 0 0 1-.755 2.048 2.85 2.85 0 0 1-.97.763c-.391.194-.859.29-1.4.29Zm0-.746c.354 0 .673-.066.958-.2.284-.131.526-.313.724-.542.2-.23.351-.49.456-.78.104-.29.158-.596.158-.916 0-.337-.053-.652-.158-.945a2.358 2.358 0 0 0-.456-.776 2.13 2.13 0 0 0-.724-.527 2.333 2.333 0 0 0-.958-.19 2.31 2.31 0 0 0-.957.19 2.085 2.085 0 0 0-.725.527c-.2.224-.35.483-.455.776a2.793 2.793 0 0 0-.158.945 2.584 2.584 0 0 0 .613 1.696 2.157 2.157 0 0 0 1.682.742ZM68.153 38.779a3.35 3.35 0 0 1-1.277-.233 2.829 2.829 0 0 1-.982-.654 2.938 2.938 0 0 1-.634-.999 3.454 3.454 0 0 1-.224-1.255v-.183a3.166 3.166 0 0 1 .792-2.102c.257-.29.571-.52.941-.688a2.98 2.98 0 0 1 1.252-.253c.503 0 .95.095 1.342.286.392.192.707.457.945.797s.375.733.414 1.181h-.83a1.583 1.583 0 0 0-.331-.842 1.733 1.733 0 0 0-.675-.506 2.212 2.212 0 0 0-.867-.17 2.2 2.2 0 0 0-.87.17 1.923 1.923 0 0 0-.684.486c-.191.21-.338.462-.443.755a2.92 2.92 0 0 0-.158.986c0 .414.056.778.17 1.09a2 2 0 0 0 1.202 1.249c.28.105.585.159.917.159.469 0 .883-.095 1.239-.286a2.04 2.04 0 0 0 .809-.742l-.299.986v-1.799h.762v1.443c-.271.353-.619.63-1.044.83-.425.199-.915.298-1.467.298v-.004Zm-.216-2.404v-.68h3.241v.68h-3.241ZM71.618 38.63l2.18-6.051h1.376l2.246 6.051h-.838l-2.031-5.52.397.199h-.978l.422-.2-1.965 5.521h-.813.004Zm1.302-1.807.273-.73h2.612l.274.73h-3.16ZM78.532 38.663v-6.117h.813v6.117h-.813Zm.647 0v-.745h1.508c.365 0 .69-.06.974-.18a2.118 2.118 0 0 0 1.19-1.23c.104-.282.156-.586.156-.912 0-.342-.052-.653-.156-.932a2.054 2.054 0 0 0-1.19-1.206 2.687 2.687 0 0 0-.974-.167H79.18v-.745h1.426c.547 0 1.022.084 1.426.253a2.841 2.841 0 0 1 1.608 1.633c.132.35.2.707.2 1.072v.183a2.984 2.984 0 0 1-.801 2.022 2.95 2.95 0 0 1-1.007.691c-.403.174-.879.262-1.426.262h-1.426v.001ZM87.8 38.779c-.543 0-1.009-.097-1.402-.29a2.835 2.835 0 0 1-.97-.764 3.364 3.364 0 0 1-.568-1.01 3.143 3.143 0 0 1-.187-1.038v-.183c0-.359.063-.72.191-1.086a3.05 3.05 0 0 1 .58-.999c.26-.3.585-.543.974-.724.39-.183.85-.274 1.381-.274s.99.09 1.38.274c.39.182.715.423.975.724.26.302.452.634.58.999.127.364.191.726.191 1.086v.183a3.343 3.343 0 0 1-.755 2.048c-.254.315-.578.57-.97.763-.391.194-.859.29-1.4.29Zm0-.746c.353 0 .672-.066.956-.2.285-.131.527-.313.725-.542.2-.23.35-.49.457-.78.104-.29.158-.596.158-.916 0-.337-.052-.652-.158-.945a2.337 2.337 0 0 0-.457-.776 2.128 2.128 0 0 0-.725-.527 2.333 2.333 0 0 0-.957-.19 2.31 2.31 0 0 0-.957.19 2.084 2.084 0 0 0-.725.527c-.2.224-.35.483-.457.776a2.79 2.79 0 0 0-.158.945 2.584 2.584 0 0 0 .615 1.696 2.157 2.157 0 0 0 1.682.742Z" fill="#fff" />
    <path d="M27.473 10.106h-8.841v36.339l2.526-1.554V12.632H30a2.526 2.526 0 0 0-2.527-2.526Z" fill="url(#b)" />
    <path d="m.946 38.671 2.527 1.554 2.526 1.554 2.527 1.555V22.737H.946V38.67Zm2.527-13.41h2.526v13.552l-2.526-1.554V25.262Z" fill="url(#c)" />
    <path d="M23.683 25.263h5.053V37.26l-2.527 1.554v-5.971h-2.526v10.492l2.526-1.554 2.527-1.554 2.526-1.556V22.737h-7.579v2.526Z" fill="url(#d)" />
    <path d="m7.473 15.157-.21-1.262H2.21L2 15.157l-.632 3.79H0a5.716 5.716 0 0 0 4.737 2.527 5.67 5.67 0 0 0 3.578-1.264 5.71 5.71 0 0 0 1.157-1.264H8.103l-.63-3.789Zm-4.824 3.79.631-3.79h2.913l.631 3.79H2.65Z" fill="url(#e)" />
    <path d="m30.842 18.948-.632-3.79-.21-1.262h-5.053l-.21 1.263-.632 3.789h-1.368a5.747 5.747 0 0 0 2.316 1.99 5.67 5.67 0 0 0 2.419.538 5.67 5.67 0 0 0 3.579-1.264c.447-.36.837-.787 1.158-1.264H30.84h.002Zm-5.456 0 .631-3.79h2.913l.631 3.79h-4.175Z" fill="url(#f)" />
    <path d="M2.21 12.632h8.842V44.89l2.527 1.555V10.106H4.736a2.527 2.527 0 0 0-2.527 2.526Z" fill="url(#g)" />
    <path d="M22.423 6.315H17.37V1.264C17.369.567 16.804 0 16.106 0c-.697 0-1.207.512-1.258 1.162v5.153H9.79a2.527 2.527 0 0 0-2.527 2.527h7.584v38.382l1.258.775 1.263-.777V8.842h7.58a2.526 2.526 0 0 0-2.526-2.527Z" fill="url(#h)" />
    <path d="M27.473 10.106h-8.841v36.339l2.526-1.554V12.632H30a2.526 2.526 0 0 0-2.527-2.526Z" fill="url(#i)" />
    <path d="m.946 38.671 2.527 1.554 2.526 1.554 2.527 1.555V22.737H.946V38.67Zm2.527-13.41h2.526v13.552l-2.526-1.554V25.262Z" fill="url(#j)" />
    <path d="M23.683 25.263h5.053V37.26l-2.527 1.554v-5.971h-2.526v10.492l2.526-1.554 2.527-1.554 2.526-1.556V22.737h-7.579v2.526Z" fill="url(#k)" />
    <path d="m7.473 15.157-.21-1.262H2.21L2 15.157l-.632 3.79H0a5.716 5.716 0 0 0 4.737 2.527 5.67 5.67 0 0 0 3.578-1.264 5.71 5.71 0 0 0 1.157-1.264H8.103l-.63-3.789Zm-4.824 3.79.631-3.79h2.913l.631 3.79H2.65Z" fill="url(#l)" />
    <path d="m30.842 18.948-.632-3.79-.21-1.262h-5.053l-.21 1.263-.632 3.789h-1.368a5.747 5.747 0 0 0 2.316 1.99 5.67 5.67 0 0 0 2.419.538 5.67 5.67 0 0 0 3.579-1.264c.447-.36.837-.787 1.158-1.264H30.84h.002Zm-5.456 0 .631-3.79h2.913l.631 3.79h-4.175Z" fill="url(#m)" />
    <path d="M2.21 12.632h8.842V44.89l2.527 1.555V10.106H4.736a2.527 2.527 0 0 0-2.527 2.526Z" fill="url(#n)" />
    <path d="M22.423 6.315H17.37V1.264C17.369.567 16.804 0 16.106 0c-.697 0-1.207.512-1.258 1.162v5.153H9.79a2.527 2.527 0 0 0-2.527 2.527h7.584v38.382l1.258.775 1.263-.777V8.842h7.58a2.526 2.526 0 0 0-2.526-2.527Z" fill="url(#o)" />
  </g>
  <defs>
    <linearGradient id="b" x1="15.166" y1="45.516" x2="24.864" y2="9.317" gradientUnits="userSpaceOnUse">
      <stop stop-color="#B18C22" />
      <stop offset="1" stop-color="#FED96E" />
    </linearGradient>
    <linearGradient id="c" x1="2.415" y1="41.698" x2="7.566" y2="22.48" gradientUnits="userSpaceOnUse">
      <stop stop-color="#B18C22" />
      <stop offset="1" stop-color="#FED96E" />
    </linearGradient>
    <linearGradient id="d" x1="24.061" y1="43.437" x2="29.719" y2="22.323" gradientUnits="userSpaceOnUse">
      <stop stop-color="#B18C22" />
      <stop offset="1" stop-color="#FED96E" />
    </linearGradient>
    <linearGradient id="e" x1="4.054" y1="21.493" x2="6.168" y2="13.602" gradientUnits="userSpaceOnUse">
      <stop stop-color="#B18C22" />
      <stop offset="1" stop-color="#FED96E" />
    </linearGradient>
    <linearGradient id="f" x1="26.791" y1="21.494" x2="28.905" y2="13.602" gradientUnits="userSpaceOnUse">
      <stop stop-color="#B18C22" />
      <stop offset="1" stop-color="#FED96E" />
    </linearGradient>
    <linearGradient id="g" x1="4.006" y1="43.88" x2="13.092" y2="9.975" gradientUnits="userSpaceOnUse">
      <stop stop-color="#B18C22" />
      <stop offset="1" stop-color="#FED96E" />
    </linearGradient>
    <linearGradient id="h" x1="7.535" y1="45.703" x2="19.546" y2=".877" gradientUnits="userSpaceOnUse">
      <stop stop-color="#B18C22" />
      <stop offset="1" stop-color="#FED96E" />
    </linearGradient>
    <linearGradient id="i" x1="10.945" y1="46.297" x2="25.676" y2="-8.678" gradientUnits="userSpaceOnUse">
      <stop stop-color="#B18C22" />
      <stop offset=".05" stop-color="#C09B31" />
      <stop offset=".14" stop-color="#D7B247" />
      <stop offset=".25" stop-color="#E8C358" />
      <stop offset=".38" stop-color="#F4CF65" />
      <stop offset=".56" stop-color="#FCD76C" />
      <stop offset="1" stop-color="#FED96E" />
    </linearGradient>
    <linearGradient id="j" x1="10.945" y1="46.297" x2="25.676" y2="-8.678" gradientUnits="userSpaceOnUse">
      <stop stop-color="#B18C22" />
      <stop offset=".05" stop-color="#C09B31" />
      <stop offset=".14" stop-color="#D7B247" />
      <stop offset=".25" stop-color="#E8C358" />
      <stop offset=".38" stop-color="#F4CF65" />
      <stop offset=".56" stop-color="#FCD76C" />
      <stop offset="1" stop-color="#FED96E" />
    </linearGradient>
    <linearGradient id="k" x1="10.945" y1="46.297" x2="25.676" y2="-8.678" gradientUnits="userSpaceOnUse">
      <stop stop-color="#B18C22" />
      <stop offset=".05" stop-color="#C09B31" />
      <stop offset=".14" stop-color="#D7B247" />
      <stop offset=".25" stop-color="#E8C358" />
      <stop offset=".38" stop-color="#F4CF65" />
      <stop offset=".56" stop-color="#FCD76C" />
      <stop offset="1" stop-color="#FED96E" />
    </linearGradient>
    <linearGradient id="l" x1="10.945" y1="46.297" x2="25.676" y2="-8.678" gradientUnits="userSpaceOnUse">
      <stop stop-color="#B18C22" />
      <stop offset=".05" stop-color="#C09B31" />
      <stop offset=".14" stop-color="#D7B247" />
      <stop offset=".25" stop-color="#E8C358" />
      <stop offset=".38" stop-color="#F4CF65" />
      <stop offset=".56" stop-color="#FCD76C" />
      <stop offset="1" stop-color="#FED96E" />
    </linearGradient>
    <linearGradient id="m" x1="10.945" y1="46.297" x2="25.676" y2="-8.678" gradientUnits="userSpaceOnUse">
      <stop stop-color="#B18C22" />
      <stop offset=".05" stop-color="#C09B31" />
      <stop offset=".14" stop-color="#D7B247" />
      <stop offset=".25" stop-color="#E8C358" />
      <stop offset=".38" stop-color="#F4CF65" />
      <stop offset=".56" stop-color="#FCD76C" />
      <stop offset="1" stop-color="#FED96E" />
    </linearGradient>
    <linearGradient id="n" x1="10.945" y1="46.297" x2="25.676" y2="-8.678" gradientUnits="userSpaceOnUse">
      <stop stop-color="#B18C22" />
      <stop offset=".05" stop-color="#C09B31" />
      <stop offset=".14" stop-color="#D7B247" />
      <stop offset=".25" stop-color="#E8C358" />
      <stop offset=".38" stop-color="#F4CF65" />
      <stop offset=".56" stop-color="#FCD76C" />
      <stop offset="1" stop-color="#FED96E" />
    </linearGradient>
    <linearGradient id="o" x1="10.945" y1="46.297" x2="25.676" y2="-8.678" gradientUnits="userSpaceOnUse">
      <stop stop-color="#B18C22" />
      <stop offset=".05" stop-color="#C09B31" />
      <stop offset=".14" stop-color="#D7B247" />
      <stop offset=".25" stop-color="#E8C358" />
      <stop offset=".38" stop-color="#F4CF65" />
      <stop offset=".56" stop-color="#FCD76C" />
      <stop offset="1" stop-color="#FED96E" />
    </linearGradient>
    <clipPath id="a">
      <path fill="#fff" d="M0 0h154.435v48H0z" />
    </clipPath>
  </defs>
</svg>