<svg width="21" height="20" fill="none" xmlns="http://www.w3.org/2000/svg">
  <path d="M17.546 2.908A9.817 9.817 0 0 0 10.538 0C5.077 0 .63 4.448.624 9.908c0 1.748.458 3.45 1.321 4.956L.545 20 5.8 18.622a9.918 9.918 0 0 0 4.737 1.207h.005c5.46 0 9.908-4.448 9.913-9.913a9.872 9.872 0 0 0-2.91-7.008h.001ZM10.538 18.15a8.217 8.217 0 0 1-4.195-1.15l-.3-.18-3.118.818.833-3.041-.195-.314a8.2 8.2 0 0 1-1.26-4.381c0-4.533 3.697-8.23 8.24-8.23a8.2 8.2 0 0 1 5.825 2.413 8.196 8.196 0 0 1 2.41 5.825c-.005 4.549-3.702 8.24-8.24 8.24Zm4.518-6.167c-.246-.124-1.462-.723-1.691-.808-.228-.081-.394-.123-.556.124-.166.246-.641.807-.784.969-.143.166-.29.185-.537.062-.247-.125-1.045-.385-1.99-1.231-.738-.656-1.232-1.469-1.38-1.715-.142-.247-.013-.38.11-.504.11-.11.247-.29.37-.432.126-.143.167-.248.248-.413.082-.167.043-.31-.018-.433-.063-.124-.557-1.345-.765-1.838-.2-.486-.404-.419-.557-.425-.142-.009-.308-.009-.475-.009a.911.911 0 0 0-.661.309c-.227.248-.864.846-.864 2.068 0 1.22.888 2.394 1.013 2.56.122.167 1.742 2.666 4.229 3.74.587.257 1.05.408 1.41.523.595.19 1.13.162 1.558.1.475-.072 1.464-.6 1.673-1.178.205-.58.205-1.075.142-1.18-.061-.104-.227-.165-.475-.29Z" fill="currentColor" />
</svg>