<svg width="48" height="48" fill="none" xmlns="http://www.w3.org/2000/svg">
  <path d="M24.042 48C37.273 48 48 37.255 48 24S37.273 0 24.042 0C10.81 0 .083 10.745.083 24S10.81 48 24.042 48Z" fill="#0D806E" />
  <path d="M34.278 15.046c.413 3.326-.694 6.132-2.842 8.648-1.71 2.003-3.272 4.13-4.742 6.323-.661.993-.628 2.052-.827 3.095-.355 1.845-.33 1.87-2.263 1.614-1.636-.224-3.264-.48-4.883-.754-1.206-.198-1.239-.223-.975-1.555.595-3.03.323-6.033-.256-9.021-.264-1.366-.875-2.623-1.42-3.881-1.207-2.79-.76-5.33.809-7.78 1.256-1.97 3.048-3.351 5.015-4.535.115-.066.231-.124.355-.165.487-.166 1.09-.538 1.479-.182.338.314-.149.835-.298 1.25-.702 1.878-1.578 3.69-2.197 5.602-.199.62-.157 1.134.231 1.663.661.902 1.272 1.846 1.908 2.764.471.68 1.132.985 1.95.969.43 0 .86-.017 1.289-.025 2.313-.066 4.023-.844 4.626-3.36.314-1.3.967-2.508 1.48-3.765.156-.39.239-.96.743-.936.603.025.537.687.595 1.093.14.976.165 1.97.23 2.954l-.007-.016ZM24.273 37.804c-2.181-.248-4.37-.496-6.551-.736-.52-.058-.694-.39-.628-.811.058-.39.264-.77.776-.712 2.247.265 4.495.538 6.742.811.454.058.628.422.553.778-.082.422-.338.794-.892.662v.008ZM17.614 37.498c2.24.273 4.362.546 6.485.77.505.057.752.29.711.744-.05.522-.355.811-.942.737-1.603-.199-3.205-.38-4.808-.563-.487-.058-.983-.124-1.47-.157-.538-.042-.942-.265-.852-.836.075-.497.405-.828.884-.695h-.008ZM18.292 39.65c1.454-.017 2.817.29 4.188.413.157.017.38.009.355.224-.016.14-.157.281-.28.38-1.182.96-3.644.96-4.263-1.026v.009Z" fill="#fff" />
</svg>