<svg xmlns="http://www.w3.org/2000/svg" xmlns:xlink="http://www.w3.org/1999/xlink" viewBox="0 0 1122.9 349.01">
  <defs>
    <linearGradient id="linear-gradient" x1="110.27" x2="180.79" y1="330.95" y2="67.74" gradientUnits="userSpaceOnUse">
      <stop offset="0" stop-color="#b18c22"/>
      <stop offset="1" stop-color="#fed96e"/>
    </linearGradient>
    <linearGradient xlink:href="#linear-gradient" id="linear-gradient-2" x1="17.56" x2="55.01" y1="303.19" y2="163.45"/>
    <linearGradient xlink:href="#linear-gradient" id="linear-gradient-3" x1="174.95" x2="216.09" y1="315.83" y2="162.31"/>
    <linearGradient xlink:href="#linear-gradient" id="linear-gradient-4" x1="29.48" x2="44.85" y1="156.28" y2="98.9"/>
    <linearGradient xlink:href="#linear-gradient" id="linear-gradient-5" x1="194.8" x2="210.17" y1="156.28" y2="98.9"/>
    <linearGradient xlink:href="#linear-gradient" id="linear-gradient-6" x1="29.13" x2="95.19" y1="319.05" y2="72.53"/>
    <linearGradient xlink:href="#linear-gradient" id="linear-gradient-7" x1="54.79" x2="142.12" y1="332.31" y2="6.38"/>
    <linearGradient id="linear-gradient-8" x1="79.58" x2="186.69" y1="336.63" y2="-63.1" gradientUnits="userSpaceOnUse">
      <stop offset="0" stop-color="#b18c22"/>
      <stop offset=".05" stop-color="#c09b31"/>
      <stop offset=".14" stop-color="#d7b247"/>
      <stop offset=".25" stop-color="#e8c358"/>
      <stop offset=".38" stop-color="#f4cf65"/>
      <stop offset=".56" stop-color="#fcd76c"/>
      <stop offset="1" stop-color="#fed96e"/>
    </linearGradient>
    <style>
      .cls-10{fill:url(#linear-gradient-8)}
    </style>
  </defs>
  <path fill="#fff" d="M284.43 155.08a78.617 78.617 0 0 1-2.01-17.75c0-12.05 2.62-23.44 7.87-34.16 5.24-10.72 12.94-19.36 23.1-25.95 10.16-6.58 22.38-9.88 36.67-9.88 21.88 0 38.95 7.26 51.23 21.77 10.94 13.17 16.41 29.36 16.41 48.55s-5.75 35.55-17.25 49.06c-11.5 13.51-28.19 20.37-50.06 20.59-14.29.22-26.9-3.01-37.84-9.71-14.51-9.15-23.89-23.32-28.13-42.53Zm97.78 24.11c2.23-4.02 4.46-9.49 6.7-16.41 2.23-6.92 3.35-14.17 3.35-21.77 0-26.56-6.14-45.65-18.42-57.26-6.48-6.03-14.4-9.04-23.77-9.04-14.73 0-25.67 6.59-32.82 19.76-6.25 11.38-9.27 25.51-9.04 42.36.22 16.86 3.35 30.97 9.38 42.36 7.37 13.84 18.08 20.76 32.15 20.76s24.89-6.92 32.48-20.76Zm94.76 20.76c11.16 0 17.19-4.02 18.08-12.06 0-2.9-2.07-5.63-6.19-8.2-4.13-2.56-10.88-5.53-20.26-8.87s-16.69-7.64-21.93-12.89c-5.25-5.24-7.87-11.66-7.87-19.25s3.4-13.78 10.21-18.58c6.81-4.8 14.62-7.2 23.44-7.2s15.91 2.12 21.26 6.36c3.12-.67 4.69-2.79 4.69-6.36h6.7v25.11h-7.7c-.89-5.8-3.57-10.27-8.04-13.39-4.47-3.12-9.66-4.69-15.57-4.69s-10.44 1.17-13.56 3.52c-3.13 2.34-4.69 5.14-4.69 8.37s1.78 6.25 5.36 9.04c3.57 2.79 8.71 5.36 15.4 7.7 6.7 2.34 11.94 4.3 15.74 5.86 12.27 6.03 18.42 14.62 18.42 25.78s-6.25 19.2-18.75 24.11c-4.91 2.23-9.94 3.35-15.07 3.35-10.5-.22-19.42-3.12-26.79-8.71-1.79 1.34-2.79 3.57-3.01 6.7h-8.71l.33-26.79h8.37c0 4.47 2.85 9.1 8.54 13.9 5.69 4.8 12.89 7.2 21.6 7.2Zm111.17-87.06c14.29 0 24.22 5.14 29.8 15.4 9.38-10.27 20.09-15.4 32.15-15.4 8.04 0 15.07 2.01 21.1 6.03 7.81 5.36 11.72 13.62 11.72 24.78v54.92h14.73v7.03H644.4v-7.03h15.4v-57.26c0-6.7-.79-11.27-2.34-13.73-1.56-2.45-3.24-4.13-5.02-5.02-1.79-.89-4.63-1.34-8.54-1.34s-8.04 1.34-12.39 4.02a35.792 35.792 0 0 0-10.88 10.38c.44 2.68.67 5.02.67 7.03v55.92h14.73v7.03h-52.57v-7.03h14.73v-58.26c0-6.25-.79-10.49-2.34-12.72-2.46-4.24-6.25-6.36-11.39-6.36-9.16 0-17.08 4.13-23.77 12.39v64.96h14.4v7.03h-52.24v-7.03h14.73v-77.7h-15.07v-6.7h38.17v10.38c8.48-7.81 17.63-11.72 27.46-11.72Zm142.65 11.72c4.24 1.12 6.7 4.58 7.37 10.38 0 3.35-1.23 6.14-3.68 8.37-2.46 2.23-5.36 3.35-8.71 3.35s-6.19-1.11-8.54-3.35c-2.34-2.23-3.52-4.91-3.52-8.04s.67-5.69 2.01-7.7c3.35-5.58 9.38-9.71 18.08-12.39 5.58-1.56 10.83-2.34 15.74-2.34 13.39 0 23.27 2.74 29.63 8.2 6.36 5.47 9.54 13.01 9.54 22.6v47.55c0 5.14 1.22 7.65 3.68 7.53 2.45-.11 4.8-1.62 7.03-4.52l4.69 4.02c-4.02 6.03-10.61 9.04-19.76 9.04-3.35 0-6.7-1-10.05-3.01-3.35-2.01-5.58-4.91-6.7-8.71-6.92 8.04-16.19 12.05-27.79 12.05-8.71 0-16.3-2.45-22.77-7.37-6.48-4.91-9.71-11.38-9.71-19.42s3.12-14.28 9.38-18.75c6.25-4.46 14.34-6.7 24.28-6.7s18.13 2.34 24.61 7.03v-21.1c0-7.14-.9-12.05-2.68-14.73-2.9-4.46-7.15-6.7-12.72-6.7-9.83 0-16.3 1.56-19.42 4.69Zm15.74 74c7.59 0 14.17-3.46 19.76-10.38v-17.75c-5.14-4.91-10.77-7.37-16.91-7.37s-10.71 1.4-13.73 4.19c-3.01 2.79-4.52 7.31-4.52 13.56 0 9.38 3.35 14.96 10.05 16.74 1.78.67 3.57 1 5.36 1Zm103.8-71.99c9.6-9.15 19.87-13.73 30.81-13.73 3.79 0 7.03 1.17 9.71 3.52 2.68 2.34 4.02 5.36 4.02 9.04s-1.17 6.7-3.52 9.04c-2.34 2.34-5.19 3.52-8.54 3.52-3.13 0-5.86-1.17-8.2-3.52-2.34-2.34-3.52-4.69-3.52-7.03s.22-4.19.67-5.52c-8.71 2.68-15.85 7.15-21.43 13.39v63.62h19.42v6.7H813.5v-6.7h13.39v-77.69H813.5v-7.03h36.83v12.39Zm126.58 100.29c2.01-3.01 3.63-7.53 4.86-13.56 1.22-6.03 1.84-19.98 1.84-41.86V76.06h-16.74v-7.03h58.6v7.03h-17.75v117.53c0 12.94-3.41 23.32-10.21 31.14-6.81 7.81-15.24 13.06-25.28 15.74l-3.68-6.36c3.57-1.79 6.36-4.19 8.37-7.2Zm101.46-100.29c9.6-9.15 19.87-13.73 30.81-13.73 3.79 0 7.03 1.17 9.71 3.52 2.68 2.34 4.02 5.36 4.02 9.04s-1.17 6.7-3.52 9.04c-2.34 2.34-5.19 3.52-8.54 3.52-3.13 0-5.86-1.17-8.2-3.52-2.34-2.34-3.52-4.69-3.52-7.03s.22-4.19.67-5.52c-8.71 2.68-15.85 7.15-21.43 13.39v63.62h19.42v6.7h-56.25v-6.7h13.39v-77.69h-13.39v-7.03h36.83v12.39ZM284.1 280.88l15.85-44h10.01l16.33 44h-6.09l-14.77-40.14 2.89 1.45h-7.11l3.07-1.45L290 280.88h-5.91Zm9.46-13.14 1.99-5.3h18.99l1.99 5.3h-22.96Zm40.81 13.38v-44.48h5.91v44.48h-5.91Zm4.7 0v-5.42h10.97c2.65 0 5.01-.43 7.08-1.3 2.07-.86 3.84-2.06 5.3-3.59 1.47-1.53 2.58-3.32 3.35-5.36.76-2.05 1.15-4.26 1.15-6.63 0-2.49-.38-4.75-1.15-6.78a15 15 0 0 0-3.35-5.3c-1.47-1.51-3.24-2.66-5.3-3.47-2.07-.8-4.43-1.21-7.08-1.21h-10.97v-5.42h10.37c3.98 0 7.43.61 10.37 1.84 2.93 1.23 5.37 2.87 7.32 4.94 1.95 2.07 3.41 4.38 4.37 6.93s1.45 5.15 1.45 7.8v1.33c0 2.57-.48 5.14-1.45 7.71-.96 2.57-2.42 4.9-4.37 6.99-1.95 2.09-4.39 3.77-7.32 5.03-2.93 1.27-6.39 1.9-10.37 1.9h-10.37Zm52.68-.24-15.25-44h6.09l13.68 40.14-2.89-1.45h7.23l-3.07 1.45 12.6-40.14h5.91l-14.16 44h-10.13Zm51.72 1.08c-3.94 0-7.33-.7-10.19-2.11-2.85-1.41-5.2-3.25-7.05-5.55-1.85-2.29-3.22-4.74-4.13-7.35-.9-2.61-1.36-5.12-1.36-7.54v-1.33c0-2.61.46-5.24 1.39-7.9.92-2.65 2.33-5.07 4.22-7.26 1.89-2.19 4.25-3.95 7.08-5.27s6.18-1.99 10.04-1.99 7.2.66 10.04 1.99 5.19 3.08 7.08 5.27c1.89 2.19 3.29 4.61 4.22 7.26.92 2.65 1.39 5.28 1.39 7.9v1.33c0 2.41-.45 4.92-1.36 7.54s-2.28 5.06-4.13 7.35-4.2 4.14-7.05 5.55c-2.85 1.41-6.25 2.11-10.19 2.11Zm0-5.42c2.57 0 4.89-.48 6.96-1.45 2.07-.96 3.83-2.28 5.27-3.95 1.45-1.67 2.55-3.56 3.31-5.67.76-2.11 1.15-4.33 1.15-6.66 0-2.45-.38-4.74-1.15-6.87-.76-2.13-1.87-4.01-3.31-5.64-1.45-1.63-3.21-2.9-5.27-3.83-2.07-.92-4.39-1.39-6.96-1.39s-4.89.46-6.96 1.39c-2.07.92-3.83 2.2-5.27 3.83-1.45 1.63-2.55 3.51-3.31 5.64-.76 2.13-1.15 4.42-1.15 6.87s.38 4.55 1.15 6.66c.76 2.11 1.87 4 3.31 5.67 1.45 1.67 3.2 2.98 5.27 3.95 2.07.96 4.39 1.45 6.96 1.45Zm52.07 5.42c-3.42 0-6.51-.56-9.28-1.69-2.77-1.12-5.15-2.71-7.14-4.76-1.99-2.05-3.53-4.47-4.61-7.26s-1.63-5.84-1.63-9.13v-1.33c0-2.81.49-5.54 1.48-8.17.98-2.63 2.41-5 4.28-7.11 1.87-2.11 4.15-3.78 6.84-5 2.69-1.23 5.73-1.84 9.1-1.84 3.66 0 6.91.69 9.76 2.08 2.85 1.39 5.14 3.32 6.87 5.79 1.73 2.47 2.73 5.33 3.01 8.59h-6.03c-.28-2.45-1.08-4.49-2.41-6.12a12.591 12.591 0 0 0-4.91-3.68c-1.95-.82-4.05-1.24-6.3-1.24s-4.4.41-6.33 1.24c-1.93.82-3.59 2-4.97 3.53-1.39 1.53-2.46 3.36-3.22 5.49-.76 2.13-1.15 4.52-1.15 7.17 0 3.01.41 5.66 1.24 7.93.82 2.27 1.98 4.16 3.47 5.67 1.49 1.51 3.24 2.64 5.27 3.41 2.03.76 4.25 1.15 6.66 1.15 3.41 0 6.42-.69 9.01-2.08 2.59-1.39 4.55-3.18 5.88-5.39l-2.17 7.17V263.3h5.54v10.49c-1.97 2.57-4.5 4.58-7.59 6.03-3.09 1.45-6.65 2.17-10.67 2.17Zm-1.57-17.48v-4.94h23.57v4.94h-23.57Zm26.77 16.4 15.85-44h10l16.33 44h-6.09l-14.77-40.14 2.89 1.45h-7.11l3.07-1.45-14.29 40.14h-5.91Zm9.46-13.14 1.99-5.3h18.99l1.99 5.3H530.2Zm40.81 13.38v-44.48h5.91v44.48h-5.91Zm4.7 0v-5.42h10.97c2.65 0 5.01-.43 7.08-1.3 2.07-.86 3.84-2.06 5.3-3.59s2.58-3.32 3.35-5.36c.76-2.05 1.14-4.26 1.14-6.63 0-2.49-.38-4.75-1.14-6.78-.76-2.03-1.88-3.8-3.35-5.3s-3.23-2.66-5.3-3.47c-2.07-.8-4.43-1.21-7.08-1.21h-10.97v-5.42h10.37c3.98 0 7.43.61 10.37 1.84s5.37 2.87 7.32 4.94c1.95 2.07 3.41 4.38 4.37 6.93s1.45 5.15 1.45 7.8v1.33c0 2.57-.48 5.14-1.45 7.71-.96 2.57-2.42 4.9-4.37 6.99-1.95 2.09-4.39 3.77-7.32 5.03s-6.39 1.9-10.37 1.9h-10.37Zm62.68.84c-3.94 0-7.33-.7-10.19-2.11-2.85-1.41-5.2-3.25-7.05-5.55-1.85-2.29-3.22-4.74-4.13-7.35s-1.36-5.12-1.36-7.54v-1.33c0-2.61.46-5.24 1.39-7.9.92-2.65 2.33-5.07 4.22-7.26 1.89-2.19 4.25-3.95 7.08-5.27 2.83-1.33 6.18-1.99 10.04-1.99s7.2.66 10.04 1.99c2.83 1.33 5.19 3.08 7.08 5.27 1.89 2.19 3.29 4.61 4.22 7.26.92 2.65 1.39 5.28 1.39 7.9v1.33c0 2.41-.45 4.92-1.36 7.54s-2.28 5.06-4.13 7.35-4.2 4.14-7.05 5.55c-2.85 1.41-6.25 2.11-10.19 2.11Zm0-5.42c2.57 0 4.89-.48 6.96-1.45 2.07-.96 3.83-2.28 5.27-3.95 1.45-1.67 2.55-3.56 3.32-5.67.76-2.11 1.15-4.33 1.15-6.66 0-2.45-.38-4.74-1.15-6.87-.76-2.13-1.87-4.01-3.32-5.64-1.45-1.63-3.21-2.9-5.27-3.83-2.07-.92-4.39-1.39-6.96-1.39s-4.89.46-6.96 1.39c-2.07.92-3.83 2.2-5.27 3.83-1.45 1.63-2.55 3.51-3.32 5.64-.76 2.13-1.15 4.42-1.15 6.87s.38 4.55 1.15 6.66c.76 2.11 1.87 4 3.32 5.67 1.45 1.67 3.2 2.98 5.27 3.95 2.07.96 4.39 1.45 6.96 1.45Z"/>
  <path fill="url(#linear-gradient)" d="M199.76 73.48h-64.29V337.7l18.37-11.3V91.85h64.29c0-10.15-8.22-18.37-18.37-18.37Z"/>
  <path fill="url(#linear-gradient-2)" d="m6.88 281.18 18.37 11.3 18.37 11.3 18.37 11.3V165.32H6.88v115.86Zm18.37-97.5h18.37v98.53l-18.37-11.3v-87.23Z"/>
  <path fill="url(#linear-gradient-3)" d="M172.2 183.69h36.74v87.23l-18.37 11.3V238.8H172.2v76.29l18.37-11.3 18.37-11.3 18.37-11.31V165.32H172.2v18.37z"/>
  <path fill="url(#linear-gradient-4)" d="m54.34 110.21-1.53-9.18H16.07l-1.53 9.18-4.59 27.55H0c2.33 3.47 5.17 6.57 8.42 9.19 2.57 2.08 5.4 3.86 8.43 5.28 5.34 2.51 11.3 3.91 17.59 3.91s12.25-1.4 17.59-3.91c3.03-1.42 5.86-3.2 8.43-5.28 3.24-2.62 6.09-5.72 8.41-9.19h-9.95l-4.59-27.55Zm-35.08 27.55 4.59-27.55h21.18l4.59 27.55H19.26Z"/>
  <path fill="url(#linear-gradient-5)" d="m224.25 137.77-4.59-27.55-1.53-9.18h-36.74l-1.53 9.18-4.59 27.55h-9.95c2.33 3.47 5.17 6.57 8.41 9.19 2.57 2.08 5.4 3.86 8.43 5.28 5.34 2.51 11.3 3.91 17.59 3.91s12.25-1.4 17.59-3.91c3.03-1.42 5.86-3.2 8.43-5.28 3.25-2.62 6.09-5.72 8.42-9.19h-9.95Zm-39.67 0 4.59-27.55h21.18l4.59 27.55h-30.36Z"/>
  <path fill="url(#linear-gradient-6)" d="M16.07 91.85h64.29V326.4l18.37 11.3V73.48H34.44c-10.14 0-18.37 8.22-18.37 18.37Z"/>
  <path fill="url(#linear-gradient-7)" d="M163.04 45.92h-36.75V9.19c0-5.07-4.11-9.19-9.18-9.19s-8.78 3.72-9.15 8.45v37.47H71.19c-10.14 0-18.37 8.22-18.37 18.37h55.14v279.08l9.15 5.63 9.18-5.65V64.29h55.12c0-10.15-8.22-18.37-18.37-18.37Z"/>
  <path d="M199.76 73.48h-64.29V337.7l18.37-11.3V91.85h64.29c0-10.15-8.22-18.37-18.37-18.37ZM6.88 281.18l18.37 11.3 18.37 11.3 18.37 11.3V165.32H6.88v115.86Zm18.37-97.5h18.37v98.53l-18.37-11.3v-87.23Z" class="cls-10"/>
  <path d="M172.2 183.69h36.74v87.23l-18.37 11.3V238.8H172.2v76.29l18.37-11.3 18.37-11.3 18.37-11.31V165.32H172.2v18.37zM54.34 110.21l-1.53-9.18H16.07l-1.53 9.18-4.59 27.55H0c2.33 3.47 5.17 6.57 8.42 9.19 2.57 2.08 5.4 3.86 8.43 5.28 5.34 2.51 11.3 3.91 17.59 3.91s12.25-1.4 17.59-3.91c3.03-1.42 5.86-3.2 8.43-5.28 3.24-2.62 6.09-5.72 8.41-9.19h-9.95l-4.59-27.55Zm-35.08 27.55 4.59-27.55h21.18l4.59 27.55H19.26Zm204.99.01-4.59-27.55-1.53-9.18h-36.74l-1.53 9.18-4.59 27.55h-9.95c2.33 3.47 5.17 6.57 8.41 9.19 2.57 2.08 5.4 3.86 8.43 5.28 5.34 2.51 11.3 3.91 17.59 3.91s12.25-1.4 17.59-3.91c3.03-1.42 5.86-3.2 8.43-5.28 3.25-2.62 6.09-5.72 8.42-9.19h-9.95Zm-39.67 0 4.59-27.55h21.18l4.59 27.55h-30.36Z" class="cls-10"/>
  <path d="M16.07 91.85h64.29V326.4l18.37 11.3V73.48H34.44c-10.14 0-18.37 8.22-18.37 18.37Z" class="cls-10"/>
  <path d="M163.04 45.92h-36.75V9.19c0-5.07-4.11-9.19-9.18-9.19s-8.78 3.72-9.15 8.45v37.47H71.19c-10.14 0-18.37 8.22-18.37 18.37h55.14v279.08l9.15 5.63 9.18-5.65V64.29h55.12c0-10.15-8.22-18.37-18.37-18.37Z" class="cls-10"/>
</svg>