<?xml version="1.0" encoding="UTF-8"?>
<svg xmlns="http://www.w3.org/2000/svg" xmlns:xlink="http://www.w3.org/1999/xlink" width="0" height="0">
  <symbol id="i-facebook" fill="currentColor" viewBox="0 0 32 33">
    <path
      d="M32 16.947C32 8.056 24.837.849 16.002.849 7.163.85 0 8.056 0 16.949c0 8.033 5.851 14.692 13.498 15.9V21.6h-4.06v-4.651h4.064v-3.55c0-4.033 2.39-6.261 6.044-6.261 1.751 0 3.581.314 3.581.314v3.96H21.11c-1.985 0-2.605 1.241-2.605 2.515v3.02h4.435l-.708 4.651h-3.73v11.249C26.15 31.639 32 24.98 32 16.947Z" />
  </symbol>
  <symbol id="i-instagram" fill="currentColor" viewBox="0 0 32 33">
    <path
      d="M16 .849c-4.342 0-4.888.02-6.594.096-1.706.08-2.868.348-3.886.744a7.834 7.834 0 0 0-2.834 1.846A7.854 7.854 0 0 0 .84 6.369c-.396 1.016-.666 2.18-.744 3.88C.02 11.959 0 12.503 0 16.85c0 4.344.02 4.888.096 6.594.08 1.704.348 2.866.744 3.884a7.858 7.858 0 0 0 1.846 2.834 7.808 7.808 0 0 0 2.832 1.846c1.02.396 2.18.666 3.884.744 1.708.076 2.252.096 6.598.096s4.888-.02 6.596-.096c1.702-.08 2.868-.348 3.886-.744a7.831 7.831 0 0 0 2.832-1.846 7.858 7.858 0 0 0 1.846-2.834c.394-1.018.664-2.18.744-3.884.076-1.706.096-2.25.096-6.596s-.02-4.89-.096-6.598c-.08-1.702-.35-2.866-.744-3.882a7.853 7.853 0 0 0-1.846-2.834 7.822 7.822 0 0 0-2.834-1.846c-1.02-.396-2.184-.666-3.886-.744-1.708-.076-2.25-.096-6.598-.096h.006H16Zm-1.434 2.884h1.436c4.272 0 4.778.014 6.464.092 1.56.07 2.408.332 2.972.55.746.29 1.28.638 1.84 1.198.56.56.906 1.092 1.196 1.84.22.562.48 1.41.55 2.97.078 1.686.094 2.192.094 6.462s-.016 4.778-.094 6.464c-.07 1.56-.332 2.406-.55 2.97a4.938 4.938 0 0 1-1.198 1.838c-.56.56-1.092.906-1.84 1.196-.56.22-1.408.48-2.97.552-1.686.076-2.192.094-6.464.094s-4.78-.018-6.466-.094c-1.56-.072-2.406-.332-2.97-.552a4.955 4.955 0 0 1-1.84-1.196 4.96 4.96 0 0 1-1.2-1.84c-.218-.562-.48-1.41-.55-2.97-.076-1.686-.092-2.192-.092-6.466 0-4.272.016-4.776.092-6.462.072-1.56.332-2.408.552-2.972.29-.746.638-1.28 1.198-1.84a4.943 4.943 0 0 1 1.84-1.196c.564-.22 1.41-.48 2.97-.552 1.476-.068 2.048-.088 5.03-.09v.004Zm9.976 2.656a1.92 1.92 0 1 0 0 3.841 1.92 1.92 0 0 0 0-3.841Zm-8.54 2.244a8.218 8.218 0 1 0-.256 16.433 8.218 8.218 0 0 0 .256-16.433Zm0 2.882a5.334 5.334 0 1 1 0 10.668 5.334 5.334 0 0 1 0-10.668Z" />
  </symbol>
  <symbol id="i-whatsapp" fill="currentColor" viewBox="0 0 32 33">
    <path
      d="M27.325 5.5a15.783 15.783 0 0 0-5.163-3.452 15.841 15.841 0 0 0-6.102-1.2C7.287.849.137 7.966.13 16.702c0 2.798.735 5.52 2.123 7.93L0 32.849l8.446-2.204a15.993 15.993 0 0 0 7.614 1.93h.008c8.776 0 15.924-7.116 15.932-15.86a15.734 15.734 0 0 0-1.213-6.072A15.79 15.79 0 0 0 27.323 5.5h.002ZM16.06 29.89a13.25 13.25 0 0 1-6.742-1.84l-.482-.287-5.01 1.308 1.337-4.866-.313-.502a13.077 13.077 0 0 1-2.023-7.01c0-7.252 5.94-13.168 13.241-13.168a13.22 13.22 0 0 1 5.07 1 13.183 13.183 0 0 1 4.292 2.862 13.11 13.11 0 0 1 2.873 4.274 13.063 13.063 0 0 1 1 5.046c-.007 7.278-5.948 13.184-13.243 13.184Zm7.263-9.867c-.396-.198-2.35-1.156-2.718-1.292-.366-.13-.633-.198-.894.198-.267.394-1.03 1.292-1.26 1.55-.229.266-.466.296-.864.1-.396-.2-1.68-.616-3.198-1.97-1.186-1.05-1.98-2.35-2.216-2.744-.23-.396-.022-.608.177-.806.174-.176.395-.464.594-.692.201-.228.267-.396.398-.66.13-.268.068-.496-.03-.694-.1-.198-.894-2.152-1.23-2.94-.321-.778-.649-.67-.894-.68-.229-.014-.496-.014-.763-.014a1.47 1.47 0 0 0-1.063.494c-.366.396-1.388 1.354-1.388 3.308 0 1.954 1.426 3.832 1.627 4.098.197.266 2.8 4.264 6.797 5.984.944.41 1.687.652 2.268.836.954.304 1.816.258 2.503.16.764-.116 2.353-.96 2.688-1.886.33-.928.33-1.72.23-1.886-.1-.168-.366-.266-.764-.464Z" />
  </symbol>
  <symbol id="i-arrow-down" stroke="currentColor" viewBox="0 0 10 20">
    <svg xmlns="http://www.w3.org/2000/svg" fill="none" stroke="currentColor" stroke-width="2" aria-hidden="true" class="-rotate-90 group-open:rotate-0 duration-150 h-6 w-6 transform" viewBox="0 0 24 24">
      <path stroke-linecap="round" stroke-linejoin="round" d="m19 9-7 7-7-7" />
    </svg>
  </symbol>
  <symbol id="i-increase" xmlns="http://www.w3.org/2000/svg" stroke="currentColor" viewBox="0 0 21 12">
    <path stroke-linecap="round" stroke-linejoin="round" stroke-width="2"
      d="M11.75 1h8m0 0v8m0-8-8 8-4-4-6 6" />
  </symbol>
</svg>