<svg width="170" height="40" fill="none" xmlns="http://www.w3.org/2000/svg">
  <path d="M26.063 10.522h-7.608v26.882L16.282 38.7V8.417h7.608c1.201 0 2.173.942 2.173 2.105ZM1.067 18.952v13.28l2.173 1.296 2.173 1.295 2.173 1.296V18.952h-6.52ZM5.413 32.35 3.24 31.054v-9.998h2.173V32.35Z" fill="#141C21" />
  <path d="M27.15 18.952v13.28l-2.173 1.296-2.173 1.293-2.173 1.296v-8.744h2.173v4.977l2.173-1.296v-9.998H20.63v-2.104h6.519ZM7.226 15.792l-.544-3.157-.18-1.052H2.153l-.18 1.052-.543 3.157H.252a4.907 4.907 0 0 0 1.993 1.657 5.015 5.015 0 0 0 2.081.448c.744 0 1.45-.16 2.082-.448a4.907 4.907 0 0 0 1.993-1.657H7.223h.003Zm-4.694 0 .543-3.157H5.58l.543 3.157H2.532ZM26.79 15.792l-.544-3.157-.18-1.052H21.72l-.18 1.052-.544 3.157h-1.178a4.905 4.905 0 0 0 1.993 1.657 5.015 5.015 0 0 0 2.082.448c.744 0 1.45-.16 2.082-.448a4.905 4.905 0 0 0 1.992-1.657H26.79Zm-4.695 0 .544-3.157h2.505l.544 3.157h-3.593Z" fill="#141C21" />
  <path d="M11.935 8.417V38.7l-2.173-1.296V10.522H2.153c0-1.163.973-2.105 2.173-2.105h7.61Z" fill="#141C21" />
  <path d="M21.72 7.37h-6.522v31.983L14.11 40l-1.084-.647V7.37H6.5c0-1.163.972-2.105 2.173-2.105h4.351V.97C13.068.428 13.537 0 14.108 0c.6 0 1.087.472 1.087 1.052v4.212h4.349c1.2 0 2.173.942 2.173 2.105h.003ZM50.406 31.246c-3.39 0-5.917-.888-7.59-2.667-1.674-1.78-2.508-4.352-2.508-7.722s.897-6.021 2.691-7.956C44.793 10.967 47.333 10 50.621 10c3.288 0 5.765.918 7.438 2.754 1.674 1.836 2.512 4.446 2.512 7.824 0 3.377-.846 6.003-2.54 7.869-1.692 1.866-4.231 2.799-7.62 2.799h-.005Zm3.893-9.399v-2.18c0-3.596-.183-5.863-.546-6.807-.406-1.08-.983-1.75-1.736-2.002-.425-.16-.944-.235-1.552-.235-.609 0-1.131.08-1.568.235-.437.158-.796.43-1.08.823a5.621 5.621 0 0 0-.683 1.24c-.172.43-.308 1.042-.41 1.828-.12 1.14-.183 2.818-.183 5.04v2.122c0 2.395.097 4.099.289 5.111.19 1.013.428 1.734.713 2.165.628.963 1.603 1.443 2.922 1.443 1.603 0 2.64-.653 3.12-1.96.476-1.308.714-3.582.714-6.823ZM62.818 31.25v-5.273h.367c.526 1.708 1.236 2.909 2.13 3.597.892.687 2.008 1.03 3.346 1.03 2.067 0 3.105-.637 3.105-1.914 0-.552-.254-.964-.76-1.24-.793-.43-1.807-.766-3.043-1-1.381-.356-2.536-.824-3.468-1.413-1.115-.707-1.673-1.829-1.673-3.359s.487-2.754 1.459-3.668c.975-.914 2.27-1.371 3.892-1.371.995 0 2.017.226 3.074.676.386.159.679.234.882.234a.715.715 0 0 0 .518-.208c.14-.136.316-.393.52-.767h.335v4.507h-.367c-1.034-2.553-2.637-3.83-4.806-3.83-.951 0-1.661.162-2.13.487-.467.325-.698.733-.698 1.224 0 .295.07.525.215.691.14.167.254.291.336.37.081.08.214.163.393.25a9.7 9.7 0 0 0 .457.208c.12.049.308.113.561.192.254.08.441.129.562.148 1.381.332 2.372.623 2.98.868.609.246 1.186.544 1.736.9 1.116.748 1.673 1.949 1.673 3.607 0 1.659-.507 2.917-1.52 3.77-1.015.854-2.404 1.281-4.17 1.281a8.268 8.268 0 0 1-3.651-.854c-.242-.158-.437-.234-.578-.234-.445 0-.881.363-1.307 1.092h-.37ZM75.113 16.919h7.333v2.712c.67-2.002 2.145-3.007 4.427-3.007 2.282 0 3.666 1.062 4.154 3.181.71-2.123 2.2-3.18 4.474-3.18 2.98 0 4.474 1.639 4.474 4.922v8.87h1.704v.529H93.25v-.53h1.065V20.84c0-1.492-.132-2.368-.394-2.622a.674.674 0 0 0-.487-.177c-.59 0-1.104.381-1.553 1.148-.445.767-.67 1.738-.67 2.917v8.31h1.095v.53h-7.82v-.53h1.064V20.84c0-1.492-.132-2.368-.394-2.622a.674.674 0 0 0-.487-.177c-.57 0-1.08.42-1.537 1.25-.456.835-.683 1.833-.683 2.992v8.134h1.097v.529h-8.43v-.53h1.674V17.449h-1.674v-.53h-.003ZM109.43 24.017h.881v-2.27c0-1.866-.105-3.117-.319-3.755-.215-.639-.625-.96-1.233-.96a1.83 1.83 0 0 0-.991.28c-.292.189-.441.442-.441.767s.063.653.184.986h.76c.164.412.242.91.242 1.488s-.253 1.08-.76 1.504c-.507.423-1.147.634-1.916.634-1.743 0-2.617-.816-2.617-2.444 0-2.418 2.118-3.623 6.358-3.623 2.415 0 4.08.397 5.005 1.194.924.797 1.384 2.255 1.384 4.375v5.98c0 1.02.293 1.534.882 1.534.69 0 1.096-1.013 1.217-3.034l.456.03c-.082 1.73-.417 2.917-1.002 3.566-.589.65-1.553.971-2.891.971-2.434 0-3.834-.725-4.197-2.18-.265.749-.659 1.296-1.185 1.651-.527.356-1.299.53-2.314.53-3.003 0-4.501-1.19-4.501-3.567 0-1.394.574-2.353 1.72-2.875 1.147-.521 2.906-.782 5.278-.782Zm-1.049 5.599c.113.295.323.442.639.442s.609-.25.882-.752.409-1.194.409-2.078V24.49h-.214c-1.256 0-1.888.896-1.888 2.683v.472c0 1.02.055 1.681.168 1.976l.004-.004ZM128.991 17.742c-.749 0-1.408.473-1.977 1.413-.57.945-.851 2.063-.851 3.359v7.895h2.161v.53h-9.494v-.53h1.674V17.448h-1.674v-.53h7.333v2.83c.266-1 .773-1.771 1.522-2.312a4.262 4.262 0 0 1 2.554-.812c.952 0 1.728.26 2.329.782.597.522.897 1.258.897 2.21s-.222 1.685-.671 2.195c-.444.51-1.131.767-2.055.767-.925 0-1.603-.295-2.04-.884-.437-.59-.492-1.405-.168-2.444h1.096c.507-1.001.293-1.504-.64-1.504l.004-.003ZM144.418 10.33h9.888v.558h-1.673V23.62c0 2.652-.621 4.583-1.857 5.791-1.237 1.21-3.093 1.814-5.566 1.814-1.642 0-2.945-.306-3.909-.914-.963-.609-1.447-1.462-1.447-2.565 0-.847.242-1.508.73-1.991.487-.48 1.15-.722 1.993-.722.842 0 1.47.208 1.888.62.413.412.624.91.624 1.488s-.113 1.164-.336 1.753h-1.185c-.184.295-.273.574-.273.839 0 .264.136.49.409.676.273.189.632.28 1.081.28.811 0 1.334-.31 1.568-.93.234-.62.351-1.96.351-4.023V10.888h-2.282v-.559h-.004ZM164.955 17.742c-.749 0-1.409.473-1.978 1.413-.569.945-.85 2.063-.85 3.359v7.895h2.161v.53h-9.494v-.53h1.673V17.448h-1.673v-.53h7.333v2.83c.265-1 .772-1.771 1.521-2.312a4.265 4.265 0 0 1 2.555-.812c.952 0 1.728.26 2.328.782.597.522.898 1.258.898 2.21s-.223 1.685-.671 2.195c-.445.51-1.132.767-2.056.767-.924 0-1.603-.295-2.04-.884-.437-.59-.491-1.405-.168-2.444h1.096c.507-1.001.293-1.504-.639-1.504l.004-.003Z" fill="#141C21" />
</svg>