<svg width="41" height="40" fill="none" xmlns="http://www.w3.org/2000/svg">
  <rect x=".545" width="39.91" height="40" rx="19.955" fill="#1C272E" />
  <path d="M27.546 12.908A9.818 9.818 0 0 0 20.538 10c-5.46 0-9.908 4.447-9.913 9.907 0 1.75.457 3.45 1.321 4.957L10.545 30l5.255-1.378a9.918 9.918 0 0 0 4.738 1.207h.005c5.46 0 9.907-4.448 9.912-9.913a9.872 9.872 0 0 0-2.91-7.008h.001ZM20.538 28.15a8.217 8.217 0 0 1-4.195-1.15l-.3-.18-3.118.818.832-3.041-.194-.314a8.2 8.2 0 0 1-1.26-4.381c0-4.533 3.697-8.23 8.24-8.23a8.199 8.199 0 0 1 5.825 2.413 8.196 8.196 0 0 1 2.41 5.825c-.005 4.549-3.702 8.24-8.24 8.24Zm4.518-6.167c-.246-.124-1.462-.723-1.691-.808-.227-.081-.394-.123-.556.124-.167.246-.642.808-.784.969-.142.166-.29.185-.537.062-.247-.125-1.046-.385-1.99-1.231-.738-.656-1.232-1.469-1.38-1.715-.142-.248-.013-.38.11-.504.11-.11.247-.29.37-.432.126-.143.167-.248.248-.413.081-.167.043-.31-.018-.434-.063-.123-.557-1.345-.765-1.837-.2-.486-.404-.419-.557-.425-.142-.009-.308-.009-.475-.009a.911.911 0 0 0-.661.309c-.228.247-.864.846-.864 2.067 0 1.222.888 2.395 1.013 2.562.122.166 1.742 2.665 4.229 3.74.587.256 1.05.407 1.41.522.595.19 1.13.162 1.558.1.475-.072 1.464-.6 1.673-1.178.205-.58.205-1.075.142-1.18-.061-.104-.227-.165-.475-.29Z" fill="#fff" />
</svg>